<svg width="54" height="30" viewBox="0 0 54 30" fill="none" xmlns="http://www.w3.org/2000/svg">
<path d="M19.1219 27.2156C19.1219 26.6587 19.176 26.0223 19.2842 25.3063C19.4195 24.5903 19.5819 23.8611 19.7713 23.1185C19.9607 22.3495 20.1501 21.607 20.3395 20.891C20.5289 20.175 20.6912 19.5386 20.8265 18.9817C20.9889 18.2922 20.9754 17.7619 20.7859 17.3906C20.5965 17.0194 20.2718 16.8337 19.8118 16.8337C19.5954 16.8337 19.1624 17.0194 18.513 17.3906C17.8907 17.7619 17.2007 18.4116 16.4431 19.3397C15.7125 20.2413 14.9819 21.4744 14.2513 23.039C13.5478 24.577 12.9931 26.5394 12.5872 28.926C12.0731 29.1912 11.5861 29.3636 11.1261 29.4431C10.8826 29.4962 10.6661 29.5359 10.4767 29.5625C9.93552 29.589 9.58376 29.4962 9.42141 29.284C9.25906 29.0984 9.28612 28.6211 9.50258 27.852C9.61082 27.4808 9.80023 26.8841 10.0708 26.0621C10.3685 25.24 10.6526 24.3516 10.9232 23.397C11.1937 22.4158 11.4237 21.4479 11.6131 20.4932C11.8296 19.5121 11.9378 18.6635 11.9378 17.9475C11.9378 17.4437 11.8431 17.0989 11.6537 16.9133C11.4914 16.7277 11.2479 16.6349 10.9232 16.6349C10.6796 16.6349 10.2737 16.7674 9.70552 17.0326C9.13729 17.2978 8.50142 17.8149 7.7979 18.5839C7.09438 19.353 6.39086 20.427 5.68734 21.8059C5.01088 23.1583 4.42913 24.9218 3.94208 27.0963V27.0167C3.88796 27.2289 3.83384 27.441 3.77972 27.6532C3.72561 27.8388 3.68502 28.0377 3.65796 28.2498C3.6309 28.462 3.59032 28.6608 3.5362 28.8465L1.50682 29.7216C1.37152 29.7746 1.19564 29.8144 0.979177 29.8409C0.789768 29.8674 0.600359 29.8276 0.41095 29.7216C0.248599 29.642 0.126836 29.4564 0.0456611 29.1647C-0.0355142 28.873 -0.00845576 28.4354 0.126836 27.852L2.68386 17.4702C2.76503 17.1254 2.83268 16.794 2.8868 16.4757C2.94091 16.184 2.96797 15.9056 2.96797 15.6404C2.99503 15.3487 2.9815 15.1101 2.92738 14.9244C3.38738 14.7123 3.79325 14.5532 4.14501 14.4471C4.49677 14.341 4.78089 14.2615 4.99735 14.2084C5.26794 14.1289 5.49794 14.0891 5.68734 14.0891C6.55321 14.0891 6.83733 14.8184 6.53969 16.2769C6.43145 16.7012 6.2691 17.3243 6.05263 18.1464C6.56674 17.51 7.10791 16.9133 7.67614 16.3564C8.27143 15.773 8.86671 15.2559 9.462 14.8051C10.0573 14.3543 10.6526 13.9963 11.2479 13.7311C11.8702 13.4659 12.479 13.3333 13.0743 13.3333C13.5343 13.3333 13.9131 13.4659 14.2108 13.7311C14.5355 13.9963 14.779 14.3543 14.9413 14.8051C15.1307 15.2294 15.239 15.7465 15.266 16.3564C15.2931 16.9398 15.266 17.5497 15.1849 18.1862C15.6178 17.6293 16.0913 17.0724 16.6054 16.5155C17.1466 15.9321 17.7013 15.415 18.2695 14.9642C18.8648 14.5134 19.4736 14.1421 20.096 13.8504C20.7183 13.5587 21.3406 13.4129 21.963 13.4129C22.6936 13.4129 23.2483 13.625 23.6271 14.0493C24.033 14.4736 24.3035 15.0172 24.4388 15.6802C24.6012 16.3432 24.6418 17.0591 24.5606 17.8282C24.5065 18.5972 24.3983 19.3397 24.2359 20.0557L22.8559 25.4256C22.5583 26.7515 22.8424 27.4145 23.7083 27.4145C24.3847 27.4145 25.1288 27.0963 25.9406 26.4598C26.7523 25.8234 27.537 25.0676 28.2947 24.1925C29.0794 23.3174 29.8099 22.4158 30.4864 21.4877C31.1629 20.5595 31.7311 19.817 32.1911 19.2602C32.3534 19.0745 32.5158 18.9685 32.6781 18.9419C32.8675 18.9154 33.0164 18.9552 33.1246 19.0613C33.2599 19.1408 33.3275 19.2867 33.3275 19.4988C33.3546 19.711 33.2869 19.9761 33.1246 20.2944C32.5834 21.2225 31.9205 22.2567 31.1358 23.397C30.3511 24.5108 29.4852 25.5582 28.5382 26.5394C27.6182 27.5206 26.6306 28.3426 25.5753 29.0056C24.52 29.6685 23.4241 30 22.2877 30C21.9089 30 21.5301 29.9602 21.1512 29.8807C20.7995 29.8011 20.4612 29.6553 20.1365 29.4431C19.8389 29.231 19.5954 28.9525 19.406 28.6078C19.2166 28.2366 19.1219 27.7725 19.1219 27.2156Z" fill="#303030"/>
<path d="M52.0677 20.0277C52.2635 19.8061 52.4593 19.6953 52.6551 19.6953C52.8788 19.6676 53.0466 19.723 53.1585 19.8615C53.2984 19.9723 53.3543 20.1524 53.3263 20.4017C53.3263 20.651 53.2145 20.928 52.9907 21.2327C52.4593 21.9529 51.844 22.7008 51.1447 23.4765C50.4455 24.2244 49.6903 24.9584 48.8792 25.6787C48.0961 26.3989 47.299 27.0776 46.4879 27.7147C45.6768 28.3518 44.8936 28.8781 44.1384 29.2936C43.2994 29.7645 42.5862 30 41.9988 30C41.4394 30 40.88 29.6399 40.3206 28.9197C39.8172 28.2825 39.5655 27.6039 39.5655 26.8837C39.5934 26.1357 39.7613 25.2078 40.0689 24.0997C40.2647 23.4072 40.5304 22.59 40.866 21.6482C41.2296 20.6787 41.5093 19.7507 41.7051 18.8643C41.9289 17.9778 41.9988 17.2299 41.9149 16.6205C41.831 15.9834 41.4674 15.6648 40.8241 15.6648C40.3766 15.6648 39.8871 15.8172 39.3557 16.1219C38.8523 16.4266 38.3348 16.8283 37.8034 17.3269C37.3 17.7978 36.8105 18.3379 36.335 18.9474C35.8596 19.5568 35.44 20.1524 35.0764 20.7341C34.8527 21.8144 34.6289 22.8809 34.4052 23.9335C34.2094 24.8199 33.9996 25.7895 33.7758 26.8421C33.5801 27.867 33.3843 28.7812 33.1885 29.5845C33.0207 29.723 32.8389 29.8199 32.6431 29.8753C32.4473 29.9307 32.2655 29.9584 32.0977 29.9584C31.9019 29.9584 31.7061 29.9446 31.5103 29.9169C31.2866 29.8615 31.0768 29.7784 30.881 29.6676C30.7132 29.5568 30.5454 29.4044 30.3776 29.2105C30.2098 29.0443 30.0839 28.8089 30 28.5042C31.2586 23.3795 32.2515 19.2659 32.9787 16.1634C33.7059 13.0609 34.2653 10.6925 34.6569 9.05817C35.1044 7.11911 35.412 5.77562 35.5799 5.0277C35.6638 4.50139 35.7337 3.98892 35.7896 3.4903C35.8456 3.04709 35.8735 2.59003 35.8735 2.11911C35.8735 1.6482 35.8316 1.21884 35.7477 0.831025C35.9714 0.692521 36.2092 0.581717 36.4609 0.498615C36.7406 0.415512 37.0063 0.34626 37.258 0.290859C37.5657 0.207756 37.8733 0.138504 38.181 0.0831025C38.4887 0.0277008 38.7684 0 39.0201 0C39.2438 0 39.4536 0.0277008 39.6494 0.0831025C39.8452 0.110803 39.971 0.193906 40.027 0.33241C40.1948 0.470914 40.2647 0.747922 40.2367 1.16343C40.2367 1.57895 40.2088 2.00831 40.1528 2.45152C40.041 2.97784 39.9151 3.54571 39.7752 4.15512C39.1879 6.39889 38.5306 8.58726 37.8034 10.7202C37.0762 12.8255 36.405 15.0831 35.7896 17.4931C36.1532 16.9391 36.5868 16.3712 37.0902 15.7895C37.5936 15.2078 38.139 14.6814 38.7264 14.2105C39.3417 13.7119 39.985 13.3102 40.6563 13.0055C41.3275 12.6731 42.0408 12.5069 42.7959 12.5069C43.1875 12.5069 43.5511 12.5762 43.8867 12.7147C44.2503 12.8255 44.558 13.0332 44.8097 13.3379C45.0894 13.615 45.2992 14.0028 45.439 14.5014C45.5789 14.9723 45.6348 15.5679 45.6068 16.2881C45.6068 16.7313 45.5509 17.1884 45.439 17.6593C45.3551 18.1302 45.2292 18.6565 45.0614 19.2382C44.8936 19.7922 44.6699 20.4155 44.3902 21.108C44.1384 21.8006 43.8308 22.6039 43.4672 23.518C43.2155 24.1551 43.0197 24.6953 42.8798 25.1385C42.74 25.5817 42.768 25.9695 42.9637 26.3019C43.2155 26.7452 43.7049 26.856 44.4321 26.6343C45.1873 26.385 46.3061 25.6648 47.7884 24.4737C48.1241 24.1967 48.5016 23.8504 48.9212 23.4349C49.3407 23.0194 49.7463 22.6039 50.1378 22.1884C50.5294 21.7452 50.893 21.3296 51.2286 20.9418C51.5643 20.554 51.844 20.2493 52.0677 20.0277Z" fill="#0CAFA5"/>
</svg>
